<svg width="288" height="117" viewBox="0 0 288 117" fill="none" xmlns="http://www.w3.org/2000/svg">
<path d="M277.554 44.5765C277.712 45.8001 277.734 46.8482 277.713 47.6196C277.312 47.0596 276.771 46.3539 276.113 45.6069C274.605 43.8961 272.435 41.9197 269.864 41.0276L269.079 40.7552L269.206 41.5766C269.741 45.0303 269.182 48.0752 268.486 50.2608C268.2 51.1599 267.891 51.9113 267.627 52.483C267.536 52.0718 267.419 51.5906 267.268 51.0631C266.798 49.4106 266.004 47.2776 264.711 45.4148L264.068 44.4888L263.813 45.5871C263.035 48.9421 261.405 51.5237 259.964 53.2693C259.384 53.9721 258.837 54.5377 258.39 54.9616C258.517 54.2312 258.649 53.272 258.712 52.1916C258.851 49.7956 258.656 46.7274 257.234 44.2509L256.822 43.5343L256.378 44.2316C254.336 47.4415 251.659 49.4139 249.488 50.5849C248.548 51.0919 247.704 51.4474 247.052 51.6872C247.197 51.4654 247.353 51.2169 247.516 50.9447C248.242 49.7354 249.113 48.046 249.679 46.1425L250.076 44.807L248.921 45.5853C246.535 47.1917 244.123 47.9966 242.304 48.3993C241.713 48.5303 241.185 48.6185 240.744 48.6779C241.353 48.0927 242.142 47.2747 242.929 46.2865C244.563 44.2343 246.253 41.3688 246.2 38.2914L246.189 37.6681L245.583 37.8139C241.739 38.7383 238.306 38.2527 235.827 37.5324C234.706 37.2066 233.784 36.8336 233.111 36.5238C233.391 36.4609 233.704 36.3854 234.041 36.2957C235.428 35.9268 237.248 35.3129 238.949 34.3333L239.894 33.7892L238.866 33.4282C236.092 32.4551 233.972 30.9453 232.545 29.6763C232.045 29.2324 231.632 28.8189 231.306 28.4697C232.074 28.5959 233.105 28.7269 234.267 28.7746C236.739 28.876 239.889 28.6043 242.369 27.0215L243.212 26.4831L242.276 26.1318C238.382 24.6717 235.751 22.2133 234.092 20.1149C233.32 19.1388 232.761 18.2428 232.383 17.5655C232.912 17.7952 233.578 18.063 234.338 18.3231C236.266 18.9825 238.842 19.6066 241.342 19.3983L242.072 19.3374L241.749 18.6797C240.436 16.0047 239.997 13.3991 239.887 11.4592C239.847 10.7667 239.85 10.1605 239.87 9.66835C240.162 10.0808 240.529 10.5732 240.963 11.1039C242.156 12.5633 243.876 14.3403 245.951 15.5335L247.054 16.1678L246.678 14.9522C245.412 10.8621 245.776 7.18452 246.459 4.5244C246.777 3.28946 247.162 2.27644 247.483 1.54739C247.652 2.30352 247.911 3.29176 248.291 4.36654C249.115 6.69805 250.533 9.51728 252.91 11.2075L253.466 11.6029L253.676 10.9535C254.65 7.93252 256.235 5.61466 257.579 4.05088C258.073 3.47585 258.534 3.00397 258.918 2.63783C258.879 2.86893 258.841 3.12289 258.804 3.39642C258.626 4.7334 258.497 6.55104 258.703 8.45374L258.837 9.69378L259.597 8.70451C261.689 5.97904 264.198 4.29736 266.187 3.29666C266.992 2.89164 267.711 2.5991 268.279 2.3947C267.827 3.10134 267.249 4.08474 266.71 5.23816C265.608 7.59385 264.624 10.7467 265.313 13.7131L265.514 14.5811L266.15 13.9568C268.826 11.3297 271.845 9.98892 274.202 9.30519C275.245 9.00241 276.156 8.8293 276.845 8.73047C276.554 9.03563 276.217 9.40379 275.857 9.82553C274.752 11.1206 273.417 12.9395 272.54 15.0044L272.228 15.7379L273.024 15.6994C276.044 15.5533 278.628 16.1622 280.458 16.8089C281.101 17.0358 281.649 17.267 282.089 17.4709C281.404 17.6209 280.523 17.8439 279.556 18.1626C277.364 18.8849 274.665 20.1192 272.828 22.166L272.11 22.9658L273.184 22.9998C277.809 23.1458 281.339 24.9217 283.717 26.6657C284.897 27.5314 285.792 28.3876 286.392 29.0285C285.852 28.9385 285.183 28.8449 284.432 28.777C282.467 28.5995 279.892 28.5945 277.551 29.3226L276.588 29.6225L277.41 30.2075C279.601 31.7651 281.137 33.5928 282.125 35.033C282.437 35.4872 282.694 35.902 282.899 36.2564C282.385 36.0433 281.741 35.7951 281.008 35.5507C279.108 34.9172 276.566 34.2968 274.079 34.4004L273.111 34.4408L273.705 35.2066C276.237 38.4685 277.212 41.9273 277.554 44.5765Z" fill="#6100FF" stroke="white"/>
<mask id="path-2-outside-1_6_28456" maskUnits="userSpaceOnUse" x="76" y="22" width="191" height="46" fill="black">
<rect fill="white" x="76" y="22" width="191" height="46"/>
<path d="M125.465 41.62C122.465 50.26 119.465 52.42 110.825 52.42H109.025L104.945 64H86.9448L91.0248 52.42H89.2248C80.5848 52.42 79.2648 50.26 82.2648 41.62L87.7848 26.2H105.785L100.265 41.62C98.9448 45.46 99.3048 46.42 102.185 46.42C105.065 46.42 106.145 45.46 107.465 41.62L112.985 26.2H130.985L125.465 41.62ZM145.999 26.2H162.199C173.239 26.2 174.559 29.98 169.279 45.1C163.999 60.1 159.739 64 148.759 64H132.559C121.459 64 120.199 60.22 125.479 45.1C130.759 29.98 134.959 26.2 145.999 26.2ZM150.979 45.1C154.579 34.78 154.819 32.2 151.939 32.2C148.939 32.2 147.379 34.78 143.779 45.1C140.179 55.42 139.939 58 142.819 58C145.699 58 147.379 55.42 150.979 45.1ZM210.799 53.2C207.799 61.84 204.799 64 196.159 64H174.559C165.919 64 164.599 61.84 167.599 53.2L177.199 26.2H195.199L185.599 53.2C184.279 57.04 184.639 58 187.519 58C190.399 58 191.479 57.04 192.799 53.2L202.399 26.2H220.399L210.799 53.2ZM260.673 38.8C258.153 45.7 255.573 49.06 250.413 50.5L251.673 64H233.673L232.473 51.4H230.613L226.173 64H208.173L221.613 26.2H250.113C262.113 26.2 264.153 28.72 260.673 38.8ZM239.853 32.2H237.453L232.773 45.4H235.173C239.013 45.4 240.453 44.08 242.373 38.8C244.173 33.52 243.693 32.2 239.853 32.2Z"/>
</mask>
<path d="M125.465 41.62C122.465 50.26 119.465 52.42 110.825 52.42H109.025L104.945 64H86.9448L91.0248 52.42H89.2248C80.5848 52.42 79.2648 50.26 82.2648 41.62L87.7848 26.2H105.785L100.265 41.62C98.9448 45.46 99.3048 46.42 102.185 46.42C105.065 46.42 106.145 45.46 107.465 41.62L112.985 26.2H130.985L125.465 41.62ZM145.999 26.2H162.199C173.239 26.2 174.559 29.98 169.279 45.1C163.999 60.1 159.739 64 148.759 64H132.559C121.459 64 120.199 60.22 125.479 45.1C130.759 29.98 134.959 26.2 145.999 26.2ZM150.979 45.1C154.579 34.78 154.819 32.2 151.939 32.2C148.939 32.2 147.379 34.78 143.779 45.1C140.179 55.42 139.939 58 142.819 58C145.699 58 147.379 55.42 150.979 45.1ZM210.799 53.2C207.799 61.84 204.799 64 196.159 64H174.559C165.919 64 164.599 61.84 167.599 53.2L177.199 26.2H195.199L185.599 53.2C184.279 57.04 184.639 58 187.519 58C190.399 58 191.479 57.04 192.799 53.2L202.399 26.2H220.399L210.799 53.2ZM260.673 38.8C258.153 45.7 255.573 49.06 250.413 50.5L251.673 64H233.673L232.473 51.4H230.613L226.173 64H208.173L221.613 26.2H250.113C262.113 26.2 264.153 28.72 260.673 38.8ZM239.853 32.2H237.453L232.773 45.4H235.173C239.013 45.4 240.453 44.08 242.373 38.8C244.173 33.52 243.693 32.2 239.853 32.2Z" fill="white"/>
<path d="M125.465 41.62L121.699 40.2719L121.692 40.2899L121.686 40.308L125.465 41.62ZM109.025 52.42V48.42H106.193L105.252 51.0908L109.025 52.42ZM104.945 64V68H107.777L108.718 65.3292L104.945 64ZM86.9448 64L83.1722 62.6708L81.2945 68H86.9448V64ZM91.0248 52.42L94.7975 53.7492L96.6752 48.42H91.0248V52.42ZM82.2648 41.62L78.4989 40.2719L78.4924 40.2899L78.4861 40.308L82.2648 41.62ZM87.7848 26.2V22.2H84.9682L84.0189 24.8519L87.7848 26.2ZM105.785 26.2L109.551 27.5481L111.465 22.2H105.785V26.2ZM100.265 41.62L96.4989 40.2719L96.4903 40.2957L96.4821 40.3197L100.265 41.62ZM107.465 41.62L103.699 40.2719L103.69 40.2957L103.682 40.3197L107.465 41.62ZM112.985 26.2V22.2H110.168L109.219 24.8519L112.985 26.2ZM130.985 26.2L134.751 27.5481L136.665 22.2H130.985V26.2ZM121.686 40.308C120.235 44.486 119.062 46.1769 117.892 47.0365C116.76 47.8675 114.95 48.42 110.825 48.42V56.42C115.34 56.42 119.349 55.8925 122.628 53.4835C125.868 51.1031 127.694 47.3939 129.244 42.932L121.686 40.308ZM110.825 48.42H109.025V56.42H110.825V48.42ZM105.252 51.0908L101.172 62.6708L108.718 65.3292L112.798 53.7492L105.252 51.0908ZM104.945 60H86.9448V68H104.945V60ZM90.7175 65.3292L94.7975 53.7492L87.2522 51.0908L83.1722 62.6708L90.7175 65.3292ZM91.0248 48.42H89.2248V56.42H91.0248V48.42ZM89.2248 48.42C87.1617 48.42 85.8698 48.2833 85.0815 48.0774C84.3336 47.882 84.5261 47.755 84.7506 48.1064C84.9379 48.3996 84.7322 48.3947 84.8455 47.4098C84.9575 46.4367 85.3207 45.014 86.0435 42.932L78.4861 40.308C77.709 42.546 77.1122 44.6333 76.8979 46.4952C76.685 48.3453 76.7868 50.5004 78.0091 52.4136C79.2686 54.385 81.2236 55.338 83.0594 55.8176C84.8549 56.2867 86.968 56.42 89.2248 56.42V48.42ZM86.0308 42.9681L91.5508 27.5481L84.0189 24.8519L78.4989 40.2719L86.0308 42.9681ZM87.7848 30.2H105.785V22.2H87.7848V30.2ZM102.019 24.8519L96.4989 40.2719L104.031 42.9681L109.551 27.5481L102.019 24.8519ZM96.4821 40.3197C96.1312 41.3404 95.8214 42.3653 95.6593 43.321C95.5084 44.2103 95.3874 45.5597 95.9306 46.9322C96.5787 48.5695 97.8631 49.5193 99.1335 49.9751C100.215 50.3632 101.338 50.42 102.185 50.42V42.42C101.927 42.42 101.773 42.4087 101.695 42.3994C101.612 42.3895 101.68 42.3892 101.835 42.4449C102 42.5043 102.305 42.6417 102.629 42.9308C102.97 43.2356 103.219 43.6087 103.369 43.9878C103.508 44.3396 103.528 44.6089 103.531 44.7071C103.534 44.8018 103.523 44.7994 103.547 44.659C103.598 44.3547 103.738 43.8196 104.048 42.9203L96.4821 40.3197ZM102.185 50.42C104.039 50.42 106.226 50.1174 108.095 48.4248C109.714 46.9584 110.577 44.8713 111.248 42.9203L103.682 40.3197C103.382 41.1922 103.144 41.7552 102.949 42.1257C102.758 42.4874 102.671 42.5434 102.725 42.4952C102.755 42.468 102.802 42.4326 102.859 42.4013C102.915 42.3709 102.95 42.3612 102.944 42.3629C102.91 42.3726 102.71 42.42 102.185 42.42V50.42ZM111.231 42.9681L116.751 27.5481L109.219 24.8519L103.699 40.2719L111.231 42.9681ZM112.985 30.2H130.985V22.2H112.985V30.2ZM127.219 24.8519L121.699 40.2719L129.231 42.9681L134.751 27.5481L127.219 24.8519ZM169.279 45.1L173.052 46.4281L173.055 46.4187L169.279 45.1ZM125.479 45.1L121.703 43.7813L121.703 43.7813L125.479 45.1ZM150.979 45.1L147.202 43.7825L147.202 43.7825L150.979 45.1ZM143.779 45.1L140.002 43.7825L140.002 43.7825L143.779 45.1ZM145.999 30.2H162.199V22.2H145.999V30.2ZM162.199 30.2C164.83 30.2 166.404 30.4398 167.315 30.7776C168.021 31.0393 168.059 31.2359 168.108 31.3693C168.262 31.7847 168.418 32.8243 168.016 35.0599C167.626 37.2255 166.802 40.0599 165.503 43.7813L173.055 46.4187C174.396 42.5801 175.387 39.272 175.889 36.4763C176.38 33.7507 176.506 31.0103 175.61 28.5907C174.609 25.8891 172.577 24.1957 170.095 23.2761C167.819 22.4327 165.088 22.2 162.199 22.2V30.2ZM165.506 43.7719C162.877 51.2388 160.754 55.11 158.448 57.2314C156.404 59.112 153.777 60 148.759 60V68C154.72 68 159.714 66.938 163.865 63.1186C167.754 59.54 170.4 53.9612 173.052 46.4281L165.506 43.7719ZM148.759 60H132.559V68H148.759V60ZM132.559 60C129.911 60 128.329 59.7598 127.415 59.4216C126.708 59.1601 126.677 58.9661 126.631 58.8395C126.479 58.426 126.325 57.387 126.732 55.1473C127.126 52.9789 127.955 50.1426 129.255 46.4187L121.703 43.7813C120.363 47.6174 119.369 50.9236 118.861 53.7165C118.366 56.438 118.232 59.179 119.122 61.6005C120.118 64.3089 122.153 66.0049 124.64 66.9247C126.918 67.7677 129.657 68 132.559 68V60ZM129.255 46.4187C131.886 38.8839 133.995 35.0264 136.283 32.9274C138.307 31.0707 140.921 30.2 145.999 30.2V22.2C140.037 22.2 135.031 23.2193 130.875 27.0326C126.983 30.6036 124.351 36.1961 121.703 43.7813L129.255 46.4187ZM154.756 46.4175C156.507 41.3969 157.679 37.6462 157.877 35.0891C157.974 33.8427 157.94 31.8792 156.619 30.248C155.167 28.4535 153.128 28.2 151.939 28.2V36.2C152.189 36.2 151.201 36.269 150.401 35.2807C149.733 34.4558 149.954 33.7823 149.901 34.4708C149.799 35.7838 149.051 38.4831 147.202 43.7825L154.756 46.4175ZM151.939 28.2C150.556 28.2 149.112 28.515 147.735 29.4039C146.44 30.2397 145.477 31.4095 144.696 32.6529C143.201 35.0347 141.776 38.6962 140.002 43.7825L147.556 46.4175C149.381 41.1838 150.537 38.3953 151.471 36.9071C151.906 36.2155 152.12 36.0952 152.074 36.1248C151.946 36.2075 151.822 36.2 151.939 36.2V28.2ZM140.002 43.7825C138.251 48.8031 137.079 52.5538 136.881 55.1108C136.784 56.3573 136.818 58.3208 138.138 59.952C139.591 61.7465 141.629 62 142.819 62V54C142.568 54 143.557 53.931 144.357 54.9192C145.025 55.7442 144.804 56.4177 144.857 55.7291C144.959 54.4162 145.707 51.7169 147.556 46.4175L140.002 43.7825ZM142.819 62C144.203 62 145.63 61.6704 146.986 60.7871C148.257 59.959 149.218 58.8038 150.005 57.5658C151.52 55.1823 152.973 51.527 154.756 46.4175L147.202 43.7825C145.385 48.993 144.198 51.7877 143.253 53.2742C142.81 53.9712 142.586 54.106 142.619 54.0842C142.737 54.0071 142.875 54 142.819 54V62ZM210.799 53.2L207.03 51.86L207.025 51.8739L207.02 51.888L210.799 53.2ZM167.599 53.2L163.83 51.86L163.825 51.8739L163.82 51.888L167.599 53.2ZM177.199 26.2V22.2H174.376L173.43 24.86L177.199 26.2ZM195.199 26.2L198.968 27.54L200.866 22.2H195.199V26.2ZM185.599 53.2L181.83 51.86L181.823 51.8798L181.816 51.8997L185.599 53.2ZM192.799 53.2L189.03 51.86L189.023 51.8798L189.016 51.8997L192.799 53.2ZM202.399 26.2V22.2H199.576L198.63 24.86L202.399 26.2ZM220.399 26.2L224.168 27.54L226.066 22.2H220.399V26.2ZM207.02 51.888C205.569 56.066 204.396 57.7569 203.226 58.6165C202.094 59.4475 200.284 60 196.159 60V68C200.674 68 204.683 67.4725 207.962 65.0635C211.202 62.6831 213.028 58.974 214.578 54.512L207.02 51.888ZM196.159 60H174.559V68H196.159V60ZM174.559 60C172.496 60 171.204 59.8633 170.416 59.6574C169.668 59.462 169.86 59.335 170.085 59.6864C170.272 59.9796 170.066 59.9747 170.18 58.9898C170.292 58.0167 170.655 56.594 171.378 54.512L163.82 51.888C163.043 54.126 162.446 56.2133 162.232 58.0752C162.019 59.9253 162.121 62.0804 163.343 63.9936C164.603 65.965 166.558 66.918 168.393 67.3976C170.189 67.8667 172.302 68 174.559 68V60ZM171.368 54.54L180.968 27.54L173.43 24.86L163.83 51.86L171.368 54.54ZM177.199 30.2H195.199V22.2H177.199V30.2ZM191.43 24.86L181.83 51.86L189.368 54.54L198.968 27.54L191.43 24.86ZM181.816 51.8997C181.465 52.9204 181.156 53.9453 180.993 54.901C180.843 55.7903 180.721 57.1397 181.265 58.5122C181.913 60.1495 183.197 61.0993 184.468 61.5551C185.55 61.9432 186.672 62 187.519 62V54C187.261 54 187.107 53.9887 187.029 53.9794C186.946 53.9695 187.014 53.9692 187.169 54.0249C187.334 54.0843 187.639 54.2217 187.963 54.5108C188.304 54.8156 188.553 55.1887 188.703 55.5678C188.842 55.9196 188.862 56.1889 188.865 56.2871C188.868 56.3818 188.857 56.3794 188.881 56.239C188.932 55.9347 189.073 55.3996 189.382 54.5003L181.816 51.8997ZM187.519 62C189.373 62 191.56 61.6974 193.429 60.0048C195.048 58.5384 195.911 56.4513 196.582 54.5003L189.016 51.8997C188.716 52.7722 188.478 53.3352 188.283 53.7057C188.093 54.0674 188.006 54.1234 188.059 54.0752C188.089 54.048 188.136 54.0126 188.193 53.9813C188.249 53.9509 188.284 53.9412 188.278 53.9429C188.244 53.9526 188.044 54 187.519 54V62ZM196.568 54.54L206.168 27.54L198.63 24.86L189.03 51.86L196.568 54.54ZM202.399 30.2H220.399V22.2H202.399V30.2ZM216.63 24.86L207.03 51.86L214.568 54.54L224.168 27.54L216.63 24.86ZM260.673 38.8L264.43 40.1722L264.442 40.1389L264.454 40.1053L260.673 38.8ZM250.413 50.5L249.338 46.6472L246.12 47.5453L246.43 50.8717L250.413 50.5ZM251.673 64V68H256.064L255.656 63.6283L251.673 64ZM233.673 64L229.691 64.3792L230.036 68H233.673V64ZM232.473 51.4L236.455 51.0208L236.11 47.4H232.473V51.4ZM230.613 51.4V47.4H227.781L226.84 50.0706L230.613 51.4ZM226.173 64V68H229.005L229.946 65.3294L226.173 64ZM208.173 64L204.404 62.66L202.505 68H208.173V64ZM221.613 26.2V22.2H218.79L217.844 24.86L221.613 26.2ZM237.453 32.2V28.2H234.627L233.683 30.8633L237.453 32.2ZM232.773 45.4L229.003 44.0633L227.111 49.4H232.773V45.4ZM242.373 38.8L246.132 40.167L246.146 40.129L246.159 40.0907L242.373 38.8ZM256.916 37.4278C255.712 40.7239 254.633 42.7607 253.489 44.1023C252.446 45.3262 251.221 46.1217 249.338 46.6472L251.488 54.3528C254.765 53.4383 257.41 51.8338 259.577 49.2927C261.643 46.8693 263.114 43.7761 264.43 40.1722L256.916 37.4278ZM246.43 50.8717L247.69 64.3717L255.656 63.6283L254.396 50.1283L246.43 50.8717ZM251.673 60H233.673V68H251.673V60ZM237.655 63.6208L236.455 51.0208L228.491 51.7792L229.691 64.3792L237.655 63.6208ZM232.473 47.4H230.613V55.4H232.473V47.4ZM226.84 50.0706L222.4 62.6706L229.946 65.3294L234.386 52.7294L226.84 50.0706ZM226.173 60H208.173V68H226.173V60ZM211.942 65.34L225.382 27.54L217.844 24.86L204.404 62.66L211.942 65.34ZM221.613 30.2H250.113V22.2H221.613V30.2ZM250.113 30.2C253.03 30.2 255.068 30.3584 256.471 30.6612C257.896 30.9689 258.157 31.3188 258.125 31.2807C258.026 31.1613 258.258 31.2601 258.188 32.3118C258.113 33.4246 257.73 35.0681 256.892 37.4946L264.454 40.1053C265.356 37.4919 266.023 35.0404 266.17 32.8457C266.321 30.5899 265.945 28.1687 264.271 26.1593C262.664 24.2312 260.382 23.3211 258.159 22.8413C255.913 22.3566 253.196 22.2 250.113 22.2V30.2ZM239.853 28.2H237.453V36.2H239.853V28.2ZM233.683 30.8633L229.003 44.0633L236.543 46.7367L241.223 33.5367L233.683 30.8633ZM232.773 49.4H235.173V41.4H232.773V49.4ZM235.173 49.4C237.545 49.4 240.055 48.9914 242.196 47.0286C244.062 45.3178 245.168 42.8186 246.132 40.167L238.614 37.433C237.658 40.0614 237.084 40.8622 236.79 41.1314C236.771 41.1486 236.641 41.4 235.173 41.4V49.4ZM246.159 40.0907C246.63 38.7104 247.019 37.399 247.221 36.2154C247.412 35.0993 247.533 33.5922 246.969 32.1031C246.301 30.3407 244.949 29.2709 243.509 28.7378C242.271 28.2794 240.944 28.2 239.853 28.2V36.2C240.228 36.2 240.483 36.2167 240.649 36.2371C240.82 36.2581 240.825 36.2748 240.731 36.2397C240.624 36.2004 240.373 36.0881 240.097 35.8327C239.805 35.5629 239.602 35.2409 239.487 34.9369C239.434 34.7972 239.408 34.6825 239.394 34.6052C239.381 34.529 239.38 34.4855 239.38 34.4837C239.38 34.482 239.381 34.5117 239.375 34.5789C239.369 34.6459 239.357 34.7405 239.336 34.8671C239.242 35.416 239.016 36.2496 238.587 37.5093L246.159 40.0907Z" fill="#6100FF" mask="url(#path-2-outside-1_6_28456)"/>
<mask id="path-4-outside-2_6_28456" maskUnits="userSpaceOnUse" x="2" y="67" width="266" height="46" fill="black">
<rect fill="white" x="2" y="67" width="266" height="46"/>
<path d="M53.3706 109L62.9706 82C64.2906 78.16 63.6906 77.2 59.8506 77.2H58.6506L47.3706 109H30.5706L40.1706 82C41.4906 78.16 40.8906 77.2 37.0506 77.2H35.8506L24.5706 109H7.77062L21.2106 71.2H72.8106C81.4506 71.2 82.7706 73.36 79.7706 82L70.1706 109H53.3706ZM102.785 71.2L89.3448 109H71.3448L84.7848 71.2H102.785ZM103.344 103C106.284 103 107.664 101.44 106.704 99.04L100.944 84.28C98.8436 78.88 105.444 71.2 112.164 71.2H138.204L134.844 77.2H126.204C123.324 77.2 121.944 78.76 122.784 81.16L128.904 96.58C130.884 101.74 124.584 109 118.224 109H90.6236L92.7836 103H103.344ZM164.745 84.4L162.585 90.4H151.785L149.025 98.2C147.705 102.04 148.305 103 152.145 103H161.745L159.585 109H137.985C129.345 109 128.025 106.84 131.025 98.2L136.785 82C139.785 73.36 142.785 71.2 151.425 71.2H173.025L170.865 77.2H161.265C157.425 77.2 156.105 78.16 154.785 82L153.945 84.4H164.745ZM213.259 83.8C210.739 90.7 208.159 94.06 202.999 95.5L204.259 109H186.259L185.059 96.4H183.199L178.759 109H160.759L174.199 71.2H202.699C214.699 71.2 216.739 73.72 213.259 83.8ZM192.439 77.2H190.039L185.359 90.4H187.759C191.599 90.4 193.039 89.08 194.959 83.8C196.759 78.52 196.279 77.2 192.439 77.2ZM256.586 86.62C253.586 95.26 250.586 97.42 241.946 97.42H240.146L236.066 109H218.066L222.146 97.42H220.346C211.706 97.42 210.386 95.26 213.386 86.62L218.906 71.2H236.906L231.386 86.62C230.066 90.46 230.426 91.42 233.306 91.42C236.186 91.42 237.266 90.46 238.586 86.62L244.106 71.2H262.106L256.586 86.62Z"/>
</mask>
<path d="M53.3706 109L62.9706 82C64.2906 78.16 63.6906 77.2 59.8506 77.2H58.6506L47.3706 109H30.5706L40.1706 82C41.4906 78.16 40.8906 77.2 37.0506 77.2H35.8506L24.5706 109H7.77062L21.2106 71.2H72.8106C81.4506 71.2 82.7706 73.36 79.7706 82L70.1706 109H53.3706ZM102.785 71.2L89.3448 109H71.3448L84.7848 71.2H102.785ZM103.344 103C106.284 103 107.664 101.44 106.704 99.04L100.944 84.28C98.8436 78.88 105.444 71.2 112.164 71.2H138.204L134.844 77.2H126.204C123.324 77.2 121.944 78.76 122.784 81.16L128.904 96.58C130.884 101.74 124.584 109 118.224 109H90.6236L92.7836 103H103.344ZM164.745 84.4L162.585 90.4H151.785L149.025 98.2C147.705 102.04 148.305 103 152.145 103H161.745L159.585 109H137.985C129.345 109 128.025 106.84 131.025 98.2L136.785 82C139.785 73.36 142.785 71.2 151.425 71.2H173.025L170.865 77.2H161.265C157.425 77.2 156.105 78.16 154.785 82L153.945 84.4H164.745ZM213.259 83.8C210.739 90.7 208.159 94.06 202.999 95.5L204.259 109H186.259L185.059 96.4H183.199L178.759 109H160.759L174.199 71.2H202.699C214.699 71.2 216.739 73.72 213.259 83.8ZM192.439 77.2H190.039L185.359 90.4H187.759C191.599 90.4 193.039 89.08 194.959 83.8C196.759 78.52 196.279 77.2 192.439 77.2ZM256.586 86.62C253.586 95.26 250.586 97.42 241.946 97.42H240.146L236.066 109H218.066L222.146 97.42H220.346C211.706 97.42 210.386 95.26 213.386 86.62L218.906 71.2H236.906L231.386 86.62C230.066 90.46 230.426 91.42 233.306 91.42C236.186 91.42 237.266 90.46 238.586 86.62L244.106 71.2H262.106L256.586 86.62Z" fill="white"/>
<path d="M53.3706 109L49.6018 107.66L47.7031 113H53.3706V109ZM62.9706 82L66.7395 83.34L66.7465 83.3202L66.7534 83.3003L62.9706 82ZM58.6506 77.2V73.2H55.8253L54.8808 75.8628L58.6506 77.2ZM47.3706 109V113H50.196L51.1405 110.337L47.3706 109ZM30.5706 109L26.8018 107.66L24.9031 113H30.5706V109ZM40.1706 82L43.9395 83.34L43.9465 83.3202L43.9534 83.3003L40.1706 82ZM35.8506 77.2V73.2H33.0253L32.0808 75.8628L35.8506 77.2ZM24.5706 109V113H27.396L28.3405 110.337L24.5706 109ZM7.77062 109L4.00177 107.66L2.10309 113H7.77062V109ZM21.2106 71.2V67.2H18.3875L17.4418 69.86L21.2106 71.2ZM79.7706 82L83.5395 83.34L83.5445 83.3261L83.5493 83.312L79.7706 82ZM70.1706 109V113H72.9937L73.9395 110.34L70.1706 109ZM57.1395 110.34L66.7395 83.34L59.2018 80.66L49.6018 107.66L57.1395 110.34ZM66.7534 83.3003C67.1109 82.2604 67.4373 81.1455 67.556 80.0678C67.6736 78.9993 67.6465 77.4465 66.7058 75.9899C65.7303 74.4794 64.2696 73.8304 63.1524 73.5393C62.0748 73.2584 60.9081 73.2 59.8506 73.2V81.2C60.2538 81.2 60.5593 81.2129 60.7887 81.2332C60.9011 81.2431 60.9853 81.254 61.0455 81.2636C61.0752 81.2684 61.0973 81.2726 61.1125 81.2757C61.1201 81.2773 61.1257 81.2785 61.1295 81.2794C61.1333 81.2803 61.1351 81.2807 61.1351 81.2807C61.135 81.2807 61.133 81.2802 61.129 81.279C61.1251 81.2779 61.119 81.2761 61.1111 81.2735C61.0954 81.2684 61.0712 81.2599 61.0398 81.2472C60.9775 81.222 60.8812 81.1776 60.7645 81.1052C60.5148 80.9503 60.2229 80.6977 59.9855 80.3301C59.7522 79.9689 59.6585 79.6314 59.6243 79.4131C59.593 79.2138 59.6119 79.1209 59.604 79.1922C59.5966 79.26 59.572 79.4146 59.5019 79.6843C59.4328 79.9498 59.3312 80.2826 59.1879 80.6997L66.7534 83.3003ZM59.8506 73.2H58.6506V81.2H59.8506V73.2ZM54.8808 75.8628L43.6008 107.663L51.1405 110.337L62.4205 78.5372L54.8808 75.8628ZM47.3706 105H30.5706V113H47.3706V105ZM34.3395 110.34L43.9395 83.34L36.4018 80.66L26.8018 107.66L34.3395 110.34ZM43.9534 83.3003C44.3109 82.2603 44.6373 81.1455 44.756 80.0678C44.8736 78.9993 44.8465 77.4465 43.9058 75.9899C42.9303 74.4794 41.4696 73.8304 40.3524 73.5393C39.2748 73.2584 38.1081 73.2 37.0506 73.2V81.2C37.4538 81.2 37.7593 81.2129 37.9887 81.2332C38.1011 81.2431 38.1853 81.254 38.2455 81.2636C38.2752 81.2684 38.2973 81.2726 38.3125 81.2757C38.3201 81.2773 38.3257 81.2785 38.3295 81.2794C38.3333 81.2803 38.3351 81.2807 38.3351 81.2807C38.335 81.2807 38.333 81.2802 38.329 81.279C38.3251 81.2779 38.319 81.2761 38.3111 81.2735C38.2954 81.2684 38.2712 81.2599 38.2398 81.2472C38.1775 81.222 38.0812 81.1776 37.9645 81.1052C37.7148 80.9503 37.4229 80.6977 37.1855 80.3301C36.9522 79.9689 36.8585 79.6314 36.8243 79.4131C36.793 79.2138 36.8119 79.1209 36.804 79.1922C36.7966 79.26 36.772 79.4146 36.7019 79.6843C36.6328 79.9498 36.5312 80.2826 36.3879 80.6997L43.9534 83.3003ZM37.0506 73.2H35.8506V81.2H37.0506V73.2ZM32.0808 75.8628L20.8008 107.663L28.3405 110.337L39.6205 78.5372L32.0808 75.8628ZM24.5706 105H7.77062V113H24.5706V105ZM11.5395 110.34L24.9795 72.54L17.4418 69.86L4.00177 107.66L11.5395 110.34ZM21.2106 75.2H72.8106V67.2H21.2106V75.2ZM72.8106 75.2C74.8738 75.2 76.1657 75.3367 76.9539 75.5426C77.7019 75.738 77.5094 75.865 77.2848 75.5136C77.0975 75.2204 77.3033 75.2253 77.19 76.2102C77.078 77.1833 76.7148 78.606 75.9919 80.688L83.5493 83.312C84.3264 81.074 84.9233 78.9867 85.1375 77.1248C85.3504 75.2747 85.2487 73.1196 84.0264 71.2064C82.7669 69.235 80.8119 68.282 78.9761 67.8024C77.1806 67.3333 75.0675 67.2 72.8106 67.2V75.2ZM76.0018 80.66L66.4018 107.66L73.9395 110.34L83.5395 83.34L76.0018 80.66ZM70.1706 105H53.3706V113H70.1706V105ZM102.785 71.2L106.554 72.54L108.452 67.2H102.785V71.2ZM89.3448 109V113H92.1679L93.1137 110.34L89.3448 109ZM71.3448 109L67.576 107.66L65.6773 113H71.3448V109ZM84.7848 71.2V67.2H81.9617L81.016 69.86L84.7848 71.2ZM99.016 69.86L85.576 107.66L93.1137 110.34L106.554 72.54L99.016 69.86ZM89.3448 105H71.3448V113H89.3448V105ZM75.1137 110.34L88.5537 72.54L81.016 69.86L67.576 107.66L75.1137 110.34ZM84.7848 75.2H102.785V67.2H84.7848V75.2ZM106.704 99.04L102.977 100.494L102.983 100.51L102.99 100.526L106.704 99.04ZM100.944 84.28L97.2156 85.7298L97.2173 85.7342L100.944 84.28ZM138.204 71.2L141.694 73.1544L145.028 67.2H138.204V71.2ZM134.844 77.2V81.2H137.188L138.334 79.1544L134.844 77.2ZM122.784 81.16L119.008 82.4814L119.035 82.5591L119.066 82.6356L122.784 81.16ZM128.904 96.58L132.638 95.147L132.63 95.1257L132.621 95.1044L128.904 96.58ZM90.6236 109L86.86 107.645L84.9323 113H90.6236V109ZM92.7836 103V99H89.9723L89.02 101.645L92.7836 103ZM103.344 107C105.361 107 107.841 106.482 109.521 104.526C111.392 102.346 111.25 99.636 110.418 97.5544L102.99 100.526C103.058 100.695 102.988 100.614 103.011 100.339C103.037 100.021 103.175 99.636 103.451 99.3141C103.575 99.1698 103.697 99.0745 103.787 99.0164C103.831 98.9879 103.867 98.969 103.891 98.9574C103.915 98.9458 103.929 98.9412 103.929 98.9411C103.929 98.9411 103.917 98.9451 103.892 98.9511C103.868 98.9571 103.831 98.9647 103.781 98.9721C103.68 98.9871 103.536 99 103.344 99V107ZM110.43 97.5858L104.67 82.8258L97.2173 85.7342L102.977 100.494L110.43 97.5858ZM104.672 82.8302C104.386 82.0965 104.517 80.3755 106.281 78.3203C107.963 76.3609 110.264 75.2 112.164 75.2V67.2C107.344 67.2 102.984 69.8791 100.211 73.1097C97.52 76.2445 95.4009 81.0635 97.2156 85.7298L104.672 82.8302ZM112.164 75.2H138.204V67.2H112.164V75.2ZM134.714 69.2456L131.354 75.2456L138.334 79.1544L141.694 73.1544L134.714 69.2456ZM134.844 73.2H126.204V81.2H134.844V73.2ZM126.204 73.2C124.175 73.2 121.747 73.7383 120.08 75.6553C118.258 77.7506 118.273 80.3819 119.008 82.4814L126.559 79.8386C126.502 79.6761 126.56 79.7457 126.532 79.9908C126.499 80.2711 126.37 80.6143 126.117 80.9047C125.883 81.1744 125.671 81.2519 125.666 81.2537C125.664 81.2546 125.703 81.2404 125.796 81.2264C125.888 81.2124 126.023 81.2 126.204 81.2V73.2ZM119.066 82.6356L125.186 98.0556L132.621 95.1044L126.501 79.6844L119.066 82.6356ZM125.169 98.013C125.406 98.6296 125.319 100.193 123.663 102.112C122.086 103.939 119.949 105 118.224 105V113C122.859 113 127.051 110.431 129.72 107.338C132.309 104.337 134.381 99.6904 132.638 95.147L125.169 98.013ZM118.224 105H90.6236V113H118.224V105ZM94.3871 110.355L96.5471 104.355L89.02 101.645L86.86 107.645L94.3871 110.355ZM92.7836 107H103.344V99H92.7836V107ZM164.745 84.4L168.508 85.7549L170.436 80.4H164.745V84.4ZM162.585 90.4V94.4H165.396L166.348 91.7549L162.585 90.4ZM151.785 90.4V86.4H148.957L148.014 89.0657L151.785 90.4ZM149.025 98.2L145.254 96.8657L145.248 96.8827L145.242 96.8997L149.025 98.2ZM161.745 103L165.508 104.355L167.436 99H161.745V103ZM159.585 109V113H162.396L163.348 110.355L159.585 109ZM131.025 98.2L127.256 96.86L127.251 96.8739L127.246 96.888L131.025 98.2ZM136.785 82L140.554 83.34L140.559 83.3261L140.563 83.312L136.785 82ZM173.025 71.2L176.788 72.5549L178.716 67.2H173.025V71.2ZM170.865 77.2V81.2H173.676L174.628 78.5549L170.865 77.2ZM154.785 82L158.56 83.3214L158.564 83.3109L158.567 83.3003L154.785 82ZM153.945 84.4L150.169 83.0786L148.307 88.4H153.945V84.4ZM160.981 83.0451L158.821 89.0451L166.348 91.7549L168.508 85.7549L160.981 83.0451ZM162.585 86.4H151.785V94.4H162.585V86.4ZM148.014 89.0657L145.254 96.8657L152.796 99.5343L155.556 91.7343L148.014 89.0657ZM145.242 96.8997C144.884 97.9396 144.558 99.0545 144.439 100.132C144.322 101.201 144.349 102.753 145.29 104.21C146.265 105.721 147.726 106.37 148.843 106.661C149.921 106.942 151.087 107 152.145 107V99C151.742 99 151.436 98.9871 151.207 98.9668C151.094 98.9569 151.01 98.946 150.95 98.9363C150.92 98.9316 150.898 98.9274 150.883 98.9243C150.875 98.9227 150.87 98.9215 150.866 98.9206C150.862 98.9197 150.86 98.9193 150.86 98.9193C150.86 98.9193 150.862 98.9198 150.866 98.921C150.87 98.9221 150.876 98.9239 150.884 98.9265C150.9 98.9316 150.924 98.9401 150.956 98.9528C151.018 98.978 151.114 99.0224 151.231 99.0948C151.481 99.2497 151.772 99.5023 152.01 99.8699C152.243 100.231 152.337 100.569 152.371 100.787C152.402 100.986 152.383 101.079 152.391 101.008C152.399 100.94 152.423 100.785 152.493 100.516C152.563 100.25 152.664 99.9174 152.807 99.5003L145.242 96.8997ZM152.145 107H161.745V99H152.145V107ZM157.981 101.645L155.821 107.645L163.348 110.355L165.508 104.355L157.981 101.645ZM159.585 105H137.985V113H159.585V105ZM137.985 105C135.922 105 134.63 104.863 133.841 104.657C133.093 104.462 133.286 104.335 133.51 104.686C133.698 104.98 133.492 104.975 133.605 103.99C133.717 103.017 134.08 101.594 134.803 99.512L127.246 96.888C126.469 99.126 125.872 101.213 125.658 103.075C125.445 104.925 125.547 107.08 126.769 108.994C128.028 110.965 129.983 111.918 131.819 112.398C133.615 112.867 135.728 113 137.985 113V105ZM134.794 99.54L140.554 83.34L133.016 80.66L127.256 96.86L134.794 99.54ZM140.563 83.312C142.014 79.1339 143.188 77.4431 144.358 76.5835C145.489 75.7525 147.3 75.2 151.425 75.2V67.2C146.909 67.2 142.9 67.7275 139.621 70.1365C136.381 72.5169 134.555 76.226 133.006 80.688L140.563 83.312ZM151.425 75.2H173.025V67.2H151.425V75.2ZM169.261 69.8451L167.101 75.8451L174.628 78.5549L176.788 72.5549L169.261 69.8451ZM170.865 73.2H161.265V81.2H170.865V73.2ZM161.265 73.2C159.152 73.2 156.756 73.4266 154.704 74.9423C152.692 76.4279 151.709 78.6431 151.002 80.6997L158.567 83.3003C159.18 81.5169 159.518 81.3321 159.456 81.3777C159.353 81.4534 159.538 81.2 161.265 81.2V73.2ZM151.009 80.6786L150.169 83.0786L157.72 85.7214L158.56 83.3214L151.009 80.6786ZM153.945 88.4H164.745V80.4H153.945V88.4ZM213.259 83.8L217.016 85.1722L217.028 85.1389L217.04 85.1053L213.259 83.8ZM202.999 95.5L201.924 91.6472L198.706 92.5453L199.016 95.8717L202.999 95.5ZM204.259 109V113H208.65L208.242 108.628L204.259 109ZM186.259 109L182.277 109.379L182.622 113H186.259V109ZM185.059 96.4L189.041 96.0208L188.696 92.4H185.059V96.4ZM183.199 96.4V92.4H180.367L179.426 95.0706L183.199 96.4ZM178.759 109V113H181.59L182.532 110.329L178.759 109ZM160.759 109L156.99 107.66L155.091 113H160.759V109ZM174.199 71.2V67.2H171.376L170.43 69.86L174.199 71.2ZM190.039 77.2V73.2H187.213L186.269 75.8633L190.039 77.2ZM185.359 90.4L181.589 89.0633L179.697 94.4H185.359V90.4ZM194.959 83.8L198.718 85.167L198.732 85.129L198.745 85.0907L194.959 83.8ZM209.502 82.4278C208.298 85.7239 207.219 87.7607 206.075 89.1023C205.032 90.3262 203.807 91.1217 201.924 91.6472L204.074 99.3528C207.351 98.4383 209.996 96.8338 212.163 94.2927C214.229 91.8693 215.7 88.7761 217.016 85.1722L209.502 82.4278ZM199.016 95.8717L200.276 109.372L208.242 108.628L206.982 95.1283L199.016 95.8717ZM204.259 105H186.259V113H204.259V105ZM190.241 108.621L189.041 96.0208L181.077 96.7792L182.277 109.379L190.241 108.621ZM185.059 92.4H183.199V100.4H185.059V92.4ZM179.426 95.0706L174.986 107.671L182.532 110.329L186.972 97.7294L179.426 95.0706ZM178.759 105H160.759V113H178.759V105ZM164.528 110.34L177.968 72.54L170.43 69.86L156.99 107.66L164.528 110.34ZM174.199 75.2H202.699V67.2H174.199V75.2ZM202.699 75.2C205.616 75.2 207.654 75.3584 209.057 75.6612C210.482 75.9689 210.743 76.3188 210.711 76.2807C210.611 76.1613 210.844 76.2601 210.773 77.3118C210.699 78.4246 210.316 80.0681 209.478 82.4946L217.04 85.1053C217.942 82.4919 218.609 80.0404 218.756 77.8457C218.907 75.5899 218.531 73.1687 216.857 71.1593C215.25 69.2312 212.968 68.3211 210.745 67.8413C208.499 67.3566 205.782 67.2 202.699 67.2V75.2ZM192.439 73.2H190.039V81.2H192.439V73.2ZM186.269 75.8633L181.589 89.0633L189.129 91.7367L193.809 78.5367L186.269 75.8633ZM185.359 94.4H187.759V86.4H185.359V94.4ZM187.759 94.4C190.131 94.4 192.641 93.9914 194.782 92.0286C196.648 90.3178 197.754 87.8186 198.718 85.167L191.2 82.433C190.244 85.0614 189.67 85.8622 189.376 86.1314C189.357 86.1486 189.227 86.4 187.759 86.4V94.4ZM198.745 85.0907C199.216 83.7104 199.605 82.399 199.807 81.2154C199.998 80.0993 200.119 78.5922 199.555 77.1031C198.887 75.3407 197.535 74.2709 196.095 73.7378C194.857 73.2794 193.53 73.2 192.439 73.2V81.2C192.814 81.2 193.069 81.2167 193.235 81.2371C193.406 81.2581 193.411 81.2748 193.317 81.2397C193.21 81.2004 192.959 81.0881 192.682 80.8327C192.391 80.5629 192.188 80.2409 192.073 79.9369C192.02 79.7972 191.994 79.6825 191.98 79.6052C191.967 79.529 191.966 79.4855 191.966 79.4837C191.966 79.482 191.967 79.5117 191.961 79.5789C191.955 79.6459 191.943 79.7405 191.922 79.8671C191.828 80.416 191.602 81.2496 191.173 82.5093L198.745 85.0907ZM256.586 86.62L252.82 85.2719L252.814 85.2899L252.807 85.308L256.586 86.62ZM240.146 97.42V93.42H237.314L236.373 96.0908L240.146 97.42ZM236.066 109V113H238.898L239.839 110.329L236.066 109ZM218.066 109L214.293 107.671L212.416 113H218.066V109ZM222.146 97.42L225.919 98.7492L227.796 93.42H222.146V97.42ZM213.386 86.62L209.62 85.2719L209.614 85.2899L209.607 85.308L213.386 86.62ZM218.906 71.2V67.2H216.089L215.14 69.8519L218.906 71.2ZM236.906 71.2L240.672 72.5481L242.586 67.2H236.906V71.2ZM231.386 86.62L227.62 85.2719L227.611 85.2957L227.603 85.3197L231.386 86.62ZM238.586 86.62L234.82 85.2719L234.811 85.2957L234.803 85.3197L238.586 86.62ZM244.106 71.2V67.2H241.289L240.34 69.8519L244.106 71.2ZM262.106 71.2L265.872 72.5481L267.786 67.2H262.106V71.2ZM252.807 85.308C251.357 89.486 250.183 91.1769 249.013 92.0365C247.882 92.8675 246.071 93.42 241.946 93.42V101.42C246.461 101.42 250.47 100.893 253.749 98.4835C256.989 96.1031 258.815 92.3939 260.365 87.932L252.807 85.308ZM241.946 93.42H240.146V101.42H241.946V93.42ZM236.373 96.0908L232.293 107.671L239.839 110.329L243.919 98.7492L236.373 96.0908ZM236.066 105H218.066V113H236.066V105ZM221.839 110.329L225.919 98.7492L218.373 96.0908L214.293 107.671L221.839 110.329ZM222.146 93.42H220.346V101.42H222.146V93.42ZM220.346 93.42C218.283 93.42 216.991 93.2833 216.203 93.0774C215.455 92.882 215.647 92.755 215.872 93.1064C216.059 93.3996 215.853 93.3947 215.967 92.4098C216.079 91.4367 216.442 90.014 217.165 87.932L209.607 85.308C208.83 87.546 208.233 89.6333 208.019 91.4952C207.806 93.3453 207.908 95.5004 209.13 97.4136C210.39 99.385 212.345 100.338 214.181 100.818C215.976 101.287 218.089 101.42 220.346 101.42V93.42ZM217.152 87.9681L222.672 72.5481L215.14 69.8519L209.62 85.2719L217.152 87.9681ZM218.906 75.2H236.906V67.2H218.906V75.2ZM233.14 69.8519L227.62 85.2719L235.152 87.9681L240.672 72.5481L233.14 69.8519ZM227.603 85.3197C227.252 86.3404 226.943 87.3653 226.78 88.321C226.63 89.2103 226.508 90.5597 227.052 91.9322C227.7 93.5695 228.984 94.5193 230.255 94.9751C231.337 95.3632 232.459 95.42 233.306 95.42V87.42C233.048 87.42 232.894 87.4087 232.816 87.3994C232.733 87.3895 232.801 87.3892 232.956 87.4449C233.121 87.5043 233.426 87.6417 233.75 87.9308C234.091 88.2356 234.34 88.6087 234.49 88.9878C234.629 89.3396 234.649 89.6089 234.652 89.7071C234.655 89.8018 234.644 89.7994 234.668 89.659C234.719 89.3547 234.86 88.8196 235.169 87.9203L227.603 85.3197ZM233.306 95.42C235.16 95.42 237.347 95.1174 239.216 93.4248C240.835 91.9584 241.698 89.8713 242.369 87.9203L234.803 85.3197C234.503 86.1922 234.265 86.7552 234.07 87.1257C233.88 87.4874 233.793 87.5434 233.846 87.4952C233.876 87.468 233.923 87.4326 233.98 87.4013C234.036 87.3709 234.071 87.3612 234.065 87.3629C234.031 87.3726 233.831 87.42 233.306 87.42V95.42ZM242.352 87.9681L247.872 72.5481L240.34 69.8519L234.82 85.2719L242.352 87.9681ZM244.106 75.2H262.106V67.2H244.106V75.2ZM258.34 69.8519L252.82 85.2719L260.352 87.9681L265.872 72.5481L258.34 69.8519Z" fill="#6100FF" mask="url(#path-4-outside-2_6_28456)"/>
<path d="M137 22H85L82 31.5L81.5 32.5C77.46 43.0643 76.0213 48.2085 77 50C78.9359 53.6022 80.8002 55.0274 85.5 56.5L81.5 69C78.6802 67.4894 76.781 67.1075 73 67H18.5L2 113H119C122.481 112.734 124.349 112.024 127.5 109.5C129.587 112.286 131.285 112.958 135 113H181.5L182.5 110.5L183 113H208.5L207 98L209 97C211.547 99.8797 213.172 100.819 216.5 101L212 113L238.5 113.5L242.5 101.5C246.602 101.601 249.286 101.06 253 99C255.529 97.5046 256.585 95.4895 258.5 92L268 67.5H256L254.5 53C261.017 49.863 262.863 44.9187 265 38.5C269.5 25 262.5 22.5 252.5 22H174.5L173 25C169.5 22 164.5 22 164.5 22H148.5C140.5 21.5 136.5 23.5 136.5 23.5L137 22Z" stroke="white" stroke-width="2"/>
<path d="M118.5 55.5C118.144 62.3138 120.451 64.5233 125.5 67L108.5 67.5L111 56C114.008 56.5239 115.639 56.3144 118.5 55.5Z" fill="white"/>
<path d="M163 63.5C160.56 65.1566 159.124 65.885 156.5 67L168.5 67.5C165.755 66.4855 164.532 65.6282 163 63.5Z" fill="white"/>
<path d="M118.5 55.5C118.144 62.3138 120.451 64.5233 125.5 67L108.5 67.5L111 56C114.008 56.5239 115.639 56.3144 118.5 55.5Z" stroke="white"/>
<path d="M163 63.5C160.56 65.1566 159.124 65.885 156.5 67L168.5 67.5C165.755 66.4855 164.532 65.6282 163 63.5Z" stroke="white"/>
<path d="M208 98L215 102L211 113.5H210L208 98Z" fill="white"/>
<path d="M161.5 94.5L159.5 99H152.5L154 94.5H161.5Z" fill="white"/>
<path d="M133 81.5L130 89L127.5 81.5H133Z" fill="white"/>
<path d="M96.5 99H102L99.5 92L96.5 99Z" fill="white"/>
<path d="M208 98L215 102L211 113.5H210L208 98Z" stroke="white"/>
<path d="M161.5 94.5L159.5 99H152.5L154 94.5H161.5Z" stroke="white"/>
<path d="M133 81.5L130 89L127.5 81.5H133Z" stroke="white"/>
<path d="M96.5 99H102L99.5 92L96.5 99Z" stroke="white"/>
</svg>
